<svg xmlns="http://www.w3.org/2000/svg" height="800" width="1200" version="1.0" viewBox="-188.85 -74.711 1636.7 448.266"><path d="M387.5 298.613c-9.72-1.454-20.303-3.97-29.69-7.057l-10.69-3.517-10.852 2.594c-16.217 3.878-29.39 5.598-42.768 5.585-14.071-.013-23.597-1.783-32.123-5.97-5.466-2.684-14.377-10.614-14.377-12.794 0-.458 3.937.516 8.75 2.164 7.76 2.657 10.39 3.043 23.25 3.412 14.283.41 30.47-1.437 42.32-4.828l3.82-1.093-8.82-5.893c-17.404-11.63-32.263-26.638-44.333-44.78l-6.857-10.305-5.157 7.305C249.79 237.862 243 254.898 243 266.024c0 3.951-.18 4.313-1.578 3.153-6.292-5.222-9.172-21.515-6.004-33.966 2.144-8.427 8.574-21.354 15.25-30.659l5.323-7.42-3.396-9.756c-5.521-15.862-7.782-28.543-8.35-46.843-.309-9.964-.03-19.98.723-26 5.317-42.47 27.87-82.477 61.61-109.29 7.45-5.92 7.618-5.992 9.81-4.262 6.136 4.846 41.604 35.77 41.553 36.23-.032.292-3.26 2.556-7.173 5.03-8.637 5.464-22.768 19.117-29.095 28.11-8.49 12.073-15.099 27.358-18.265 42.252-1.886 8.871-2.925 25.707-1.976 32.032l.712 4.752 3.178-2.56c1.748-1.41 8.353-6.554 14.678-11.433 34.841-26.878 83.982-53.241 120.852-64.835 6.676-2.1 12.14-4.093 12.143-4.43.01-1.191-12.018-5.99-20.205-8.06-10.607-2.684-24.247-2.117-36.753 1.529l-8.462 2.467-11.365-9.59-11.365-9.589 3.827-2.33c4.631-2.818 16.467-7.474 25.328-9.964 5.187-1.458 10.136-1.829 24.5-1.838 15.8-.01 18.964.267 25.884 2.271 15.983 4.63 29.554 11.868 41.358 22.059l5.396 4.658 20.18.052c21.622.056 25.26.672 35.966 6.093 5.482 2.776 11.85 8.78 14.263 13.445l1.652 3.196-3.35-2.042c-8.866-5.404-23.277-7.58-40.821-6.164-16.159 1.304-15.549.896-11.51 7.715 8.965 15.142 12.828 30.503 12.75 50.705-.045 11.75-.473 15.607-2.662 24-6.46 24.769-22.205 47.244-42.372 60.483l-7.631 5.01-2.552-2.328c-1.403-1.281-6.376-5.637-11.051-9.68-4.675-4.042-8.609-7.605-8.742-7.918-.133-.312 1.587-1.612 3.822-2.889 11.483-6.559 26.91-25.478 32.777-40.194 10.159-25.486 7.15-55.917-7.164-72.477l-3.398-3.93-13.952 4.634c-41.092 13.647-87.215 38.34-125.945 67.429-6.106 4.586-13.976 10.982-17.49 14.213l-6.388 5.876 4.662 9.385c15.038 30.282 43.706 51.51 80.318 59.474 10.675 2.322 34.013 2.334 44.5.023 10.867-2.394 21.491-6.086 30.404-10.563l7.806-3.922 20.517 17.63 20.517 17.628-2.372 1.921c-8.814 7.141-35.65 20.584-52.003 26.051-19.019 6.358-27.946 7.787-50.869 8.144-11.275.176-21.85.118-23.5-.129zM125 202.685c-38.775-33.759-70.838-61.394-71.25-61.412-.413-.017-.75 27.419-.75 60.969v61H0V37.106l8.75 7.426c4.813 4.085 36.852 31.34 71.2 60.568 34.347 29.228 62.81 53.142 63.25 53.142.44 0 .8-27.45.8-61v-61h53v114c0 62.7-.338 113.96-.75 113.911-.413-.048-32.475-27.709-71.25-61.468zm448-52.443v-113l43.25.02c54.3.024 61.48.926 80.57 10.116 17.917 8.625 27.866 21.415 31.751 40.818 2.178 10.879 1.524 26.927-1.441 35.321-5.322 15.07-15 27.286-26.375 33.294l-5.744 3.035 33.994 51.272c18.697 28.2 33.995 51.464 33.995 51.698 0 .234-15.025.426-33.389.426h-33.389l-34.36-59.042-34.362-59.04-.616 27.291c-.34 15.01-.677 41.58-.75 59.042l-.134 31.75h-53zm78.364-6.49c17.742-3.758 25.324-14.266 24.463-33.905-.32-7.314-.884-9.982-2.863-13.56-5.03-9.098-15.168-13.052-34.252-13.363l-11.212-.182-.264 30.674c-.247 28.595-.145 30.705 1.5 31.134 3.869 1.009 16.145.576 22.628-.797zM809 174.743v-88.5h-56v-50h163v50h-53v177h-54zm143-25v-113.5h133v46h-79v41h71v46h-71v48h86v46H952zm182 0v-113.5h54v177h71v50h-125z" fill="#074887"/></svg>